<svg width="1000" height="710" viewBox="0 0 1000 710" fill="none" xmlns="http://www.w3.org/2000/svg">
<path d="M231.818 540C221.818 570.727 232.364 593.091 233.637 617.454C234.606 635.273 235.818 653.333 237.273 671.636L53.2729 673.091C51.9687 673.115 50.6726 672.874 49.4606 672.383C48.2485 671.891 47.1448 671.158 46.2137 670.227C45.2827 669.296 44.5432 668.185 44.0382 666.96C43.5333 665.735 43.2731 664.42 43.2729 663.091L43.8184 42C43.8184 32.5455 48.5457 27.8788 58.0002 28L194.546 30.1818C197.697 30.2296 200.702 31.5149 202.914 33.7602C205.125 36.0055 206.364 39.0305 206.364 42.1818L206.546 528C206.546 533.091 208.909 536.727 213.637 538.909C218.243 540.848 224.303 541.212 231.818 540Z" fill="#4B51CA"/>
<path d="M702 537.818L707.454 592.545C707.939 598.364 709.151 604.061 711.091 609.636L732.182 672L547.454 672.364C545.14 672.364 542.92 671.444 541.283 669.807C539.647 668.171 538.727 665.951 538.727 663.636L538.545 42.5454C538.545 33.0909 543.333 28.3636 552.909 28.3636L689.454 29.2727C692.413 29.3204 695.233 30.5291 697.308 32.638C699.383 34.7469 700.546 37.587 700.545 40.5455L702 537.818Z" fill="#B556A1"/>
<path d="M237.273 671.636C235.818 653.333 234.606 635.273 233.637 617.455C232.364 593.091 221.818 570.727 231.818 540L458.182 537.636C466.546 537.636 470.727 541.818 470.727 550.182L471.455 659.818C471.455 668.788 466.97 673.273 458 673.273L237.273 671.636Z" fill="#A954A7"/>
<path d="M702 537.818L958.727 538.364C960.672 538.411 962.521 539.198 963.88 540.557C965.239 541.916 965.999 543.739 966 545.636L965.273 664C965.273 669.212 962.667 671.818 957.455 671.818L732.182 672L711.091 609.636C709.152 604.061 707.939 598.364 707.455 592.545L702 537.818Z" fill="#5C52C2"/>
</svg>
